<?xml version="1.0" encoding="UTF-8" standalone="no"?>
<!-- Created with Inkscape (http://www.inkscape.org/) -->

<svg
   xmlns:dc="http://purl.org/dc/elements/1.1/"
   xmlns:cc="http://creativecommons.org/ns#"
   xmlns:rdf="http://www.w3.org/1999/02/22-rdf-syntax-ns#"
   xmlns:svg="http://www.w3.org/2000/svg"
   xmlns="http://www.w3.org/2000/svg"
   xmlns:xlink="http://www.w3.org/1999/xlink"
   xmlns:sodipodi="http://sodipodi.sourceforge.net/DTD/sodipodi-0.dtd"
   xmlns:inkscape="http://www.inkscape.org/namespaces/inkscape"
   width="768"
   height="256"
   id="svg2"
   version="1.1"
   inkscape:version="0.48.2 r9819"
   sodipodi:docname="knyt.svg"
   inkscape:export-filename="/Users/thomas/GitHub/Knyt/knyt.png"
   inkscape:export-xdpi="180"
   inkscape:export-ydpi="180">
  <sodipodi:namedview
     id="base"
     pagecolor="#ffffff"
     bordercolor="#666666"
     borderopacity="1.0"
     inkscape:pageopacity="0.0"
     inkscape:pageshadow="2"
     inkscape:zoom="1.4166667"
     inkscape:cx="384"
     inkscape:cy="128"
     inkscape:document-units="px"
     inkscape:current-layer="layer1"
     showgrid="true"
     inkscape:window-width="1219"
     inkscape:window-height="676"
     inkscape:window-x="0"
     inkscape:window-y="0"
     inkscape:window-maximized="0">
    <inkscape:grid
       type="xygrid"
       id="grid2985"
       empspacing="5"
       visible="true"
       enabled="true"
       snapvisiblegridlinesonly="true" />
  </sodipodi:namedview>
  <defs
     id="defs4">
    <linearGradient
       id="linearGradient5012">
      <stop
         style="stop-color:#000000;stop-opacity:0.5;"
         offset="0"
         id="stop5014" />
      <stop
         style="stop-color:#ffffff;stop-opacity:0;"
         offset="1"
         id="stop5016" />
    </linearGradient>
    <linearGradient
       id="linearGradient3761">
      <stop
         style="stop-color:#868686;stop-opacity:1;"
         offset="0"
         id="stop3763" />
      <stop
         style="stop-color:#c1c1c1;stop-opacity:1;"
         offset="1"
         id="stop3765" />
    </linearGradient>
    <radialGradient
       inkscape:collect="always"
       xlink:href="#linearGradient3761"
       id="radialGradient3769"
       cx="120"
       cy="162.05411"
       fx="120"
       fy="162.05411"
       r="52.625"
       gradientTransform="matrix(3.4204275,3.9957321e-7,-4.3287096e-7,3.705463,-280.45124,413.89825)"
       gradientUnits="userSpaceOnUse" />
    <radialGradient
       inkscape:collect="always"
       xlink:href="#linearGradient3761"
       id="radialGradient3815"
       gradientUnits="userSpaceOnUse"
       gradientTransform="matrix(3.4204275,3.9957321e-7,-4.3287096e-7,3.705463,-280.45124,-382.46393)"
       cx="120"
       cy="162.05411"
       fx="120"
       fy="162.05411"
       r="52.625" />
    <linearGradient
       inkscape:collect="always"
       xlink:href="#linearGradient5012"
       id="linearGradient5018"
       x1="100"
       y1="852.36218"
       x2="235"
       y2="987.36218"
       gradientUnits="userSpaceOnUse" />
    <linearGradient
       gradientUnits="userSpaceOnUse"
       y2="987.36218"
       x2="235"
       y1="852.36218"
       x1="100"
       id="linearGradient5886"
       xlink:href="#linearGradient5012"
       inkscape:collect="always" />
    <linearGradient
       inkscape:collect="always"
       xlink:href="#linearGradient5012"
       id="linearGradient9489"
       x1="400"
       y1="852.36218"
       x2="505"
       y2="957.36218"
       gradientUnits="userSpaceOnUse" />
    <linearGradient
       inkscape:collect="always"
       xlink:href="#linearGradient5012"
       id="linearGradient9497"
       x1="480"
       y1="852.36218"
       x2="744.05438"
       y2="1021.3391"
       gradientUnits="userSpaceOnUse" />
    <linearGradient
       inkscape:collect="always"
       xlink:href="#linearGradient5012"
       id="linearGradient9505"
       x1="555.40625"
       y1="1037.6212"
       x2="821.68744"
       y2="1037.6212"
       gradientUnits="userSpaceOnUse" />
    <linearGradient
       inkscape:collect="always"
       xlink:href="#linearGradient5012"
       id="linearGradient9513"
       x1="626.78625"
       y1="1014.6299"
       x2="867.77863"
       y2="1014.6299"
       gradientUnits="userSpaceOnUse" />
    <linearGradient
       inkscape:collect="always"
       xlink:href="#linearGradient5012"
       id="linearGradient9521"
       gradientUnits="userSpaceOnUse"
       x1="480"
       y1="852.36218"
       x2="585"
       y2="957.36218" />
    <linearGradient
       inkscape:collect="always"
       xlink:href="#linearGradient5012"
       id="linearGradient9523"
       gradientUnits="userSpaceOnUse"
       x1="555"
       y1="852.36218"
       x2="660"
       y2="957.36218" />
    <linearGradient
       inkscape:collect="always"
       xlink:href="#linearGradient5012"
       id="linearGradient9525"
       gradientUnits="userSpaceOnUse"
       x1="625"
       y1="852.36218"
       x2="730"
       y2="957.36218" />
  </defs>
  <metadata
     id="metadata7">
    <rdf:RDF>
      <cc:Work
         rdf:about="">
        <dc:format>image/svg+xml</dc:format>
        <dc:type
           rdf:resource="http://purl.org/dc/dcmitype/StillImage" />
        <dc:title></dc:title>
      </cc:Work>
    </rdf:RDF>
  </metadata>
  <g
     inkscape:label="Layer 1"
     inkscape:groupmode="layer"
     id="layer1"
     transform="translate(0,-796.36218)">
    <path
       style="font-size:144px;font-style:normal;font-variant:normal;font-weight:normal;font-stretch:normal;line-height:125%;letter-spacing:0px;word-spacing:0px;fill:url(#linearGradient9525);fill-opacity:1;stroke:none;font-family:Myriad Web Pro;-inkscape-font-specification:Myriad Web Pro"
       d="m 651.0625,871.42468 c -4.36458,1.30208 -8.72917,2.60417 -13.09375,3.90625 -0.53992,4.02183 1.05515,10.17866 -0.74776,12.9375 -3.73116,0.91168 -11.95474,-2.66906 -10.18974,3.73879 -0.33105,4.14729 -0.0892,7.72172 2.96875,8.47996 1.10426,2.13458 2.99322,3.48445 4.74776,4.96875 1.17967,2.22433 4.22018,2.58783 3.22099,6.99104 0.77736,13.16047 -2.31029,27.16414 3.60495,39.43729 20.51524,21.92559 42.42704,42.64816 63.4888,64.10294 46.36709,46.1288 92.28546,92.7572 138.93092,138.5766 8.55308,6.4125 29.85654,3.3437 21.56908,-8.7329 -2.37592,-4.1601 -6.59333,-5.978 -9,-10.1562 -2.75906,-2.9351 -7.31079,-3.8012 -7.46875,-9.8348 0,-9.7738 0,-19.5476 0,-29.3215 6.1875,0 12.375,0 18.5625,0 -0.57176,-3.7504 1.47275,-10.1171 -1.74776,-11.2187 -1.0263,-2.037 -3.3613,-2.7652 -4.22099,-4.9688 -2.13707,-1.1017 -3.46593,-3.0117 -4.96875,-4.7477 -2.03695,-1.0263 -2.7652,-3.3613 -4.96875,-4.221 -1.10426,-2.1346 -2.99322,-3.4845 -4.74776,-4.9688 -1.0263,-2.0369 -3.3613,-2.7652 -4.22099,-4.9687 -2.13707,-1.1018 -3.46593,-3.0118 -4.96875,-4.7478 -2.03695,-1.0263 -2.7652,-3.3613 -4.96875,-4.221 -1.10426,-2.1345 -2.99322,-3.4844 -4.74776,-4.9687 -1.0263,-2.037 -3.3613,-2.7652 -4.22099,-4.9688 -2.13707,-1.1017 -3.46593,-3.0117 -4.96875,-4.7477 -2.05006,-1.0132 -2.74543,-3.3811 -4.96875,-4.221 -1.10177,-2.1371 -3.01174,-3.4659 -4.74776,-4.9688 -1.0263,-2.0369 -3.3613,-2.7652 -4.22099,-4.9687 -2.13707,-1.1018 -3.46593,-3.0118 -4.96875,-4.7478 -2.05006,-1.0132 -2.74543,-3.381 -4.96875,-4.221 -1.10177,-2.137 -3.01174,-3.4659 -4.74776,-4.9687 -1.12567,-1.8639 -3.0375,-2.9417 -4.22099,-4.7477 -2.08202,-0.9813 -2.70624,-3.4203 -4.96875,-4.221 -1.11631,-2.11213 -3.0011,-3.45576 -4.71651,-4.96877 -1.02437,-2.04929 -3.43445,-2.71288 -4.25224,-4.96875 -2.08942,-1.139 -3.46952,-2.98732 -4.96875,-4.71651 -2.04929,-1.02437 -2.71288,-3.43445 -4.96875,-4.25224 -1.11631,-2.11211 -3.0011,-3.45574 -4.71651,-4.96875 -1.02437,-2.04929 -3.43445,-2.71288 -4.25224,-4.96875 -2.08942,-1.139 -3.46952,-2.98732 -4.96875,-4.71651 -2.04929,-1.02437 -2.71288,-3.43445 -4.96875,-4.25224 -1.139,-2.08942 -2.98732,-3.46952 -4.71651,-4.96875 -1.02437,-2.04929 -3.43445,-2.71288 -4.25224,-4.96875 -2.08942,-1.139 -3.46952,-2.98732 -4.96875,-4.71651 -2.03368,-1.03998 -2.71085,-3.43647 -4.96875,-4.25224 -1.139,-2.08942 -2.98732,-3.46952 -4.71651,-4.96875 -1.02437,-2.04929 -3.43445,-2.71288 -4.25224,-4.96875 -2.08942,-1.139 -3.46952,-2.98732 -4.96875,-4.71651 -2.03368,-1.03998 -2.71085,-3.43647 -4.96875,-4.25224 -1.139,-2.08942 -2.98732,-3.46952 -4.71651,-4.96875 -1.03998,-2.03368 -3.43647,-2.71085 -4.25224,-4.96875 -2.08942,-1.139 -3.46952,-2.98732 -4.96875,-4.71651 -2.03368,-1.03998 -2.71085,-3.43647 -4.96875,-4.25224 -1.14978,-2.07864 -2.9642,-3.49264 -4.71651,-4.96875 -1.03998,-2.03368 -3.43647,-2.71085 -4.25224,-4.96875 -2.29058,-0.68859 -2.59046,-3.36787 -4.96875,-3.96875 -0.99874,-2.45885 -3.30433,-3.61084 -5.625,-4.74776 -2.24266,-0.51548 -2.70597,-3.40672 -4.96875,-3.87729 -1.08182,-2.27974 -3.02226,-3.52258 -4.71983,-5.04755 -1.06293,-2.20278 -3.48349,-2.54098 -4.24892,-5.1712 -1.20524,0.7011 -1.77102,-1.19504 -2,-2 z"
       id="path8650"
       inkscape:connector-curvature="0" />
    <path
       inkscape:connector-curvature="0"
       id="path7780"
       d="m 555.40625,888.26843 c 9.05886,22.04507 18.4356,43.97017 27.294,66.0909 0.76022,14.06615 -19.65544,19.54725 -21.82314,27.72709 1.0891,7.69416 5.0119,10.49216 8.81039,13.55701 2.77715,3.91414 6.52358,6.13317 9.28125,10.06247 3.20748,2.6025 6.25634,5.5667 8.96875,8.9688 3.264,2.3765 5.89513,5.6256 8.83953,8.5848 3.05724,2.4051 5.50478,6.0796 8.75422,8.1651 2.67616,3.5418 5.70842,6.3009 8.9375,9 2.78314,3.2531 5.64364,6.5222 8.96875,8.9063 2.68672,4.0324 6.55281,6.0778 9.25,10.125 3.29987,1.8495 5.33386,5.9323 8.65625,7.8124 2.71256,3.9792 6.58986,6.152 9.28125,10.0938 3.25335,2.5508 6.17657,5.5243 8.9375,8.9375 3.54519,2.3312 6.08326,6.4843 9.625,8.8437 2.37326,3.755 5.942,5.3282 8.2812,9.0938 3.58838,2.2301 6.06582,6.5531 9.65625,8.7812 2.71076,4.092 6.56393,6.0699 9.25,10.125 3.60966,2.2514 6.05355,6.5334 9.65625,8.7813 2.70631,4.0642 6.54017,6.089 9.25,10.125 3.60966,2.2513 6.05355,6.5334 9.65625,8.7812 2.71639,4.0543 6.53815,6.0911 9.25,10.125 3.60966,2.2514 6.05355,6.5334 9.65625,8.7813 2.70311,4.0286 6.52788,6.0884 9.25,10.125 4.67333,2.0486 6.02908,10.8775 14.15901,6.031 20.95516,-8.8377 27.20633,-32.9684 35.56015,-51.9135 6.29152,-15.8933 12.58302,-31.7867 18.87459,-47.68 -3.21562,-1.3473 -4.19924,-4.1601 -6.77031,-5.9688 -2.29194,-1.9219 -3.50728,-4.5417 -6.57344,-5.9687 -1.21807,-2.5123 -3.38701,-4.3846 -5.9375,-6 -1.19726,-2.4272 -3.49772,-4.0418 -5.39531,-5.9688 -1.9029,-2.0804 -3.98192,-3.9729 -5.96875,-5.9687 -1.58458,-2.1128 -4.23745,-3.443 -5.16719,-5.9688 -2.63591,-1.5946 -4.85613,-3.4057 -5.96875,-5.9687 -2.77373,-1.0899 -3.55485,-3.5388 -5.80156,-4.9687 -1.89149,-2.044 -3.87595,-4.0684 -5.96875,-5.9688 -1.41155,-1.8039 -3.21897,-3.394 -4.96875,-4.9687 -1.6625,-1.96 -3.78071,-3.6134 -5.27175,-5.7114 -2.29927,-1.047 -2.50951,-3.5001 -5.23919,-4.2574 -1.19726,-2.4271 -3.49772,-4.0418 -5.39531,-5.9687 -1.58458,-2.1128 -4.23745,-3.443 -5.16719,-5.9688 -2.73654,-1.1482 -3.62025,-3.4997 -5.80156,-4.9687 -1.4732,-2.14428 -4.24434,-3.45958 -5.16719,-5.96872 -2.72451,-1.47891 -4.63933,-3.55417 -5.96875,-5.96875 -2.63417,-1.54058 -4.70373,-3.51069 -5.96875,-5.96875 -3.14503,-1.37272 -4.25688,-4.16243 -6.77031,-5.96875 -2.23576,-1.94033 -3.57034,-4.54017 -6.57344,-5.96875 -0.83236,-2.99303 -4.77479,-3.94559 -5.5625,-6.96875 -3.14594,-1.37694 -4.27765,-4.15715 -6.77031,-5.96875 -2.20979,-1.95786 -3.58445,-4.53064 -6.57344,-5.96875 -0.83236,-2.99303 -4.77479,-3.94559 -5.5625,-6.96875 -3.14594,-1.37694 -4.27765,-4.15715 -6.77031,-5.96875 -2.20979,-1.95786 -3.58445,-4.53064 -6.57344,-5.96875 -0.83236,-2.99303 -4.77479,-3.94559 -5.5625,-6.96875 -3.14594,-1.37694 -4.27765,-4.15715 -6.77031,-5.96875 -1.35799,-2.22167 -4.45062,-3.32106 -5.16719,-5.96875 -2.67539,-1.51091 -4.72197,-3.48549 -5.96875,-5.96875 -3.16746,-1.35756 -4.24646,-4.16948 -6.77031,-5.96875 -2.23576,-1.94033 -3.57034,-4.54017 -6.57344,-5.96875 -0.83949,-2.98887 -4.74414,-3.95263 -5.5625,-6.96875 -1.50676,-2.25236 -6.39746,-2.22691 -11.58747,-2 -6.55596,-2.09282 -6.13213,5.63984 -8.21815,9.83937 -2.2956,6.09917 -4.57862,14.09074 -6.88188,19.03563 -3.49675,-2.54637 -6.08458,-6.43457 -9.59375,-8.96875 -2.79238,-3.2566 -5.69564,-6.32358 -8.9375,-8.9375 -2.80708,-3.75573 -6.52345,-6.22387 -9.34375,-9.96875 -3.32763,-2.18137 -9.36994,-0.44546 -13.82496,-1 -0.62071,0 -1.24196,0 -1.86249,0 z"
       style="font-size:144px;font-style:normal;font-variant:normal;font-weight:normal;font-stretch:normal;line-height:125%;letter-spacing:0px;word-spacing:0px;fill:url(#linearGradient9523);fill-opacity:1;stroke:none;font-family:Myriad Web Pro;-inkscape-font-specification:Myriad Web Pro" />
    <path
       style="font-size:144px;font-style:normal;font-variant:normal;font-weight:normal;font-stretch:normal;line-height:125%;letter-spacing:0px;word-spacing:0px;fill:url(#linearGradient9521);fill-opacity:1;stroke:none;font-family:Myriad Web Pro;-inkscape-font-specification:Myriad Web Pro"
       d="m 520.34375,886.70593 c -8.34634,-3.02073 -17.29596,10.00231 -21.68634,5.5625 -1.79448,-2.73436 -4.11065,-4.89585 -9.2111,-4 -11.58603,-2.43026 -2.61683,14.69758 -5.25851,21.40306 0,16.10523 0,32.21046 0,48.31569 2.14851,1.09072 3.5091,2.96936 5,4.71769 1.99532,1.06754 2.74338,3.38232 4.96875,4.21981 1.11162,2.11719 2.96318,3.49444 4.71769,4.96875 1.02913,2.04414 3.42537,2.72117 4.21981,5 2.14851,1.09072 3.5091,2.96936 5,4.71769 1.99532,1.06754 2.74338,3.38232 4.96875,4.21981 1.11162,2.11719 2.96318,3.49444 4.71769,4.96875 1.02913,2.04414 3.42537,2.72117 4.21981,5 2.14851,1.09072 3.5091,2.96936 5,4.71772 1.99532,1.0675 2.74338,3.3823 4.96875,4.2198 1.10453,2.1243 2.95473,3.5029 4.71769,4.9687 1.03353,2.0293 3.39503,2.7307 4.21981,4.9688 2.13153,1.1181 3.5045,2.9948 5,4.7489 1.99532,1.0676 2.74338,3.3823 4.96875,4.2198 1.10453,2.1243 2.95473,3.5029 4.71769,4.9688 1.03353,2.0293 3.39503,2.7307 4.21981,4.9687 2.13153,1.1182 3.5045,2.9948 5,4.749 2.01852,1.0443 2.73458,3.3911 4.96875,4.2198 1.10453,2.1243 2.95473,3.5029 4.71769,4.9687 1.05037,2.0125 3.36543,2.7603 4.21981,4.9688 2.13153,1.1181 3.5045,2.9948 5,4.7489 2.01852,1.0444 2.73458,3.3912 4.96875,4.2198 1.10453,2.1243 2.95473,3.5029 4.71769,4.9688 1.05037,2.0125 3.36543,2.7603 4.21981,4.9687 2.11816,1.1211 3.51206,2.9664 4.96875,4.749 2.05333,1.0199 2.75508,3.3914 5,4.2198 1.10208,2.1267 2.97311,3.4845 4.71769,4.9687 1.05037,2.0125 3.36543,2.7603 4.21981,4.9688 2.11816,1.1211 3.51206,2.9664 4.96875,4.7489 2.05333,1.02 2.75508,3.3915 5,4.2198 1.10208,2.1268 2.97311,3.4846 4.71769,4.9688 1.05037,2.0125 3.36543,2.7603 4.21981,4.9687 2.11816,1.1211 3.51206,2.9664 4.96875,4.749 2.05333,1.0199 2.75508,3.3914 5,4.2198 1.07519,2.1536 2.98585,3.4718 4.71769,4.9687 1.03732,2.0256 3.38495,2.7408 4.21981,4.9688 2.11816,1.1211 3.51206,2.9664 4.96875,4.7489 2.05333,1.02 2.75508,3.3915 5,4.2198 1.07519,2.1537 2.98585,3.4718 4.71769,4.9688 1.03732,2.0255 3.38495,2.7407 4.21981,4.9687 2.11816,1.1211 3.51206,2.9664 4.96875,4.749 2.26556,0.9736 2.63712,3.8413 5.49787,4.2198 3.60457,-1.1034 11.86126,2.4453 11.87713,-2.2468 0.0208,-11.1782 -0.0416,-22.4396 0.0312,-33.5657 1.13961,2.0892 2.98687,3.4707 4.71769,4.9687 1.03826,2.035 3.43602,2.7106 4.25106,4.9688 2.0892,1.1396 3.47075,2.9869 4.96875,4.7177 2.03501,1.0382 2.71052,3.436 4.96875,4.251 1.13961,2.0892 2.98687,3.4708 4.71769,4.9688 1.03826,2.035 3.43602,2.7105 4.25106,4.9687 2.0892,1.1396 3.47075,2.9869 4.96875,4.7177 1.44101,2.4621 5.26791,2.5382 9.45811,2.2511 6.71328,1.9949 6.36797,-3.0688 5.91689,-8.2383 -0.50483,-14.7656 1.23732,-29.7404 -1.39572,-44.325 -3.72526,-12.4234 -15.65469,-19.4467 -23.79178,-28.843 -60.64251,-60.6545 -121.28068,-121.33898 -181.96923,-181.94618 -4.43765,-4.00055 -10.40768,-5.99927 -16.34352,-5.92879 z"
       id="path6907"
       inkscape:connector-curvature="0" />
    <path
       inkscape:connector-curvature="0"
       id="path6034"
       d="m 402.09375,860.92468 c 0,32.35417 0,64.70833 0,97.0625 2.10375,1.14192 3.54168,2.94967 4.96875,4.76828 2.09507,0.95091 2.71502,3.37696 4.96875,4.16922 1.12709,2.11858 2.96714,3.52421 4.76828,4.96875 0.96627,2.10055 3.40166,2.73198 4.20047,5 2.10375,1.14192 3.54168,2.94967 4.96875,4.76828 2.09507,0.95091 2.71502,3.37696 4.96875,4.16922 1.12709,2.11858 2.96714,3.52421 4.76828,4.96875 0.96627,2.10055 3.40166,2.73198 4.20047,5 2.10375,1.14192 3.54168,2.94967 4.96875,4.76832 2.07938,0.9666 2.71315,3.3788 4.96875,4.1692 1.12709,2.1186 2.96714,3.5242 4.76828,4.9687 0.97075,2.0857 3.37116,2.7417 4.20047,4.9688 2.08669,1.1694 3.53717,2.975 4.96875,4.7995 2.07938,0.9666 2.71315,3.3788 4.96875,4.1692 1.12709,2.1186 2.96714,3.5242 4.76828,4.9688 0.97075,2.0856 3.37116,2.7416 4.20047,4.9687 2.08669,1.1694 3.53717,2.975 4.96875,4.7996 2.10244,0.9435 2.70447,3.3875 4.96875,4.1692 1.13754,2.1081 2.94476,3.5466 4.76828,4.9687 0.97075,2.0857 3.37116,2.7417 4.20047,4.9688 2.08669,1.1694 3.53717,2.975 4.96875,4.7995 2.10244,0.9436 2.70447,3.3875 4.96875,4.1692 1.13754,2.1082 2.94476,3.5466 4.76828,4.9688 0.97075,2.0856 3.37116,2.7416 4.20047,4.9687 2.08669,1.1694 3.53717,2.975 4.96875,4.7996 2.10244,0.9435 2.70447,3.3875 4.96875,4.1692 1.13526,2.1104 2.9628,3.5285 4.76828,4.9687 0.95915,2.0869 3.37594,2.7161 4.16922,4.9688 2.12233,1.1442 3.55695,2.9761 5,4.7995 2.10244,0.9436 2.70447,3.3875 4.96875,4.1692 1.13526,2.1104 2.9628,3.5286 4.76828,4.9688 0.95915,2.0868 3.37594,2.716 4.16922,4.9687 2.12233,1.1442 3.55695,2.9761 5,4.7996 2.10244,0.9435 2.70447,3.3875 4.96875,4.1692 1.13526,2.1104 2.9628,3.5285 4.76828,4.9687 0.94648,2.0995 3.39495,2.6971 4.16922,4.9688 2.12233,1.1442 3.55695,2.9761 5,4.7995 2.07628,0.9697 2.71974,3.3723 4.96875,4.1692 1.13526,2.1104 2.9628,3.5286 4.76828,4.9688 0.94648,2.0995 3.39495,2.697 4.16922,4.9687 2.12233,1.1442 3.55695,2.9761 5,4.7996 2.32361,0.922 2.58774,3.9036 5.5678,4.1692 3.45939,-1.2759 12.2385,2.768 11.80715,-2.3986 0,-11.3984 0,-22.7968 0,-34.1952 3.41931,-7.1066 6.48602,2.2859 9.93745,3.75 6.39672,6.8934 13.19074,13.0263 19.59375,19.9063 4.40602,4.1685 8.70852,8.4602 12.9375,12.9374 5.28125,0 10.5625,0 15.84375,0 -13.0625,-18.625 -26.12504,-37.2499 -39.1875,-55.875 12.10417,-13.7291 24.20841,-27.4582 36.3125,-41.1875 -3.74414,-0.5093 -2.41822,-3.3273 -5.875,-3.9687 -0.56453,-2.1098 -2.50053,-3.5932 -4.6928,-4.9688 -0.9802,-1.5306 -1.6503,-3.2019 -4.2447,-4 -0.12682,-1.8254 -1.85849,-2.9313 -3.72405,-3.9687 -0.0995,-1.7676 -2.57856,-2.4553 -3.16923,-4 -2.39806,-1.0021 -2.05039,-3.2414 -5.04422,-3.9688 -0.55953,-2.1142 -2.60982,-3.5606 -4.72405,-4.9687 -0.18247,-2.0723 -3.58152,-2.6888 -3.3697,-4.9687 -3.78516,-0.4997 -2.3709,-3.3587 -5.84375,-4 -0.58421,-2.1024 -2.60282,-3.553 -4.6928,-4.9688 -0.083,-2.1298 -3.86895,-2.5886 -3.40095,-4.9687 -2.5384,-0.7721 -3.80661,-2.1135 -3.96875,-3.9688 -2.57642,-0.7645 -3.85103,-2.1198 -3.96875,-4 -3.74414,-0.5093 -2.41822,-3.32726 -5.875,-3.96872 -0.56453,-2.10977 -2.50053,-3.59315 -4.6928,-4.96875 -0.56686,-2.04007 -3.2858,-3.10358 -4.16923,-5 -2.29855,-1.04725 -2.1133,-3.2129 -5.04422,-3.96875 0.0104,-2.23112 -3.11248,-3.10746 -3.92453,-4.9687 -2.2598,-1.02914 -2.11893,-3.14762 -4.76827,-4 -0.57503,-1.6677 -2.0971,-2.89411 -3.96875,-3.96875 -0.52859,-2.04873 -3.35773,-3.0627 -4.20048,-4.96875 -1.44083,-1.63121 -4.21865,-2.65786 -4.16922,-4.96875 -3.76416,-0.50918 -2.367,-3.3604 -5.84375,-4 -0.17076,-1.84576 -1.86865,-3.00124 -3.96875,-3.96875 0.0353,-2.26333 -3.27492,-3.01345 -3.92453,-4.96875 -1.49271,-1.6105 -4.1739,-2.67388 -4.16922,-4.96875 -3.78516,-0.49965 -2.3709,-3.35863 -5.84375,-4 -0.13439,-1.82524 -1.88092,-2.92151 -3.72405,-3.96875 0.0516,-2.19023 -3.95585,-2.53103 -3.3697,-4.96875 -3.78516,-0.49965 -2.3709,-3.35863 -5.84375,-4 -0.58421,-2.10235 -2.60282,-3.55302 -4.6928,-4.96875 -0.38478,-1.91272 -3.05766,-2.79648 -3.74946,-4.57045 -1.88058,-1.28127 -3.14496,-2.84215 -4.41977,-4.3983 -1.54627,-1.58983 -4.23849,-2.65038 -4.16922,-4.96875 -3.72573,-0.51435 -2.46246,-3.29958 -5.84375,-3.96875 0.063,-2.07562 -2.83701,-2.80872 -3.47351,-4.57045 -2.1411,-0.84114 -1.63178,-2.88495 -4.49524,-3.3983 -0.58421,-2.10235 -2.60282,-3.55302 -4.6928,-4.96875 -0.54184,-2.0432 -3.31869,-3.07697 -4.20048,-4.96875 -1.49271,-1.6105 -4.1739,-2.67388 -4.16922,-4.96875 -2.5407,-0.78074 -3.77409,-2.1547 -3.96875,-4 -3.72568,-0.51438 -2.46253,-3.29946 -5.84365,-3.9688 -0.59586,-2.10029 -2.5291,-3.58963 -4.72405,-4.96875 -0.56686,-2.04007 -3.2858,-3.10358 -4.16923,-5 -0.66117,-1.87255 -4.42173,-2.32977 -9.99525,-1.96875 -9.25576,-2.55431 -12.98072,6.7436 -18.3526,12.49907 -3.86264,6.55577 -8.65453,10.57233 -10.94637,4.60765 -2.0766,-0.96939 -2.70033,-3.39164 -4.96875,-4.16922 -0.70062,-2.28897 -3.27988,-2.69929 -3.96875,-5 -2.12592,-1.11975 -3.56895,-2.9224 -4.96875,-4.76828 -2.21402,-1.44143 -3.07844,-4.23247 -7.79715,-3.16922 -3.00512,0 -6.01023,0 -9.01535,0 z"
       style="font-size:144px;font-style:normal;font-variant:normal;font-weight:normal;font-stretch:normal;line-height:125%;letter-spacing:0px;word-spacing:0px;fill:url(#linearGradient9489);fill-opacity:1;stroke:none;font-family:Myriad Web Pro;-inkscape-font-specification:Myriad Web Pro" />
    <path
       style="fill:url(#linearGradient5018);fill-opacity:1;stroke:none;stroke-width:1.50000000000000000;stroke-linecap:round;stroke-linejoin:miter;stroke-miterlimit:4;stroke-opacity:1;stroke-dasharray:none"
       d="m 131,820.39343 c -25,10 -50,20 -75,30 -4.58515,52.87093 7.922825,111.40611 48.90625,148.0625 65.59111,65.42687 130.83296,131.21637 196.66806,196.39147 11.4196,8.3134 25.99715,25.8944 39.39117,11.7506 46.86953,-29.5498 64.75477,-87.9516 63.96241,-140.8383 0.62617,-9.836 0.0149,-19.5709 -7.83414,-23.71 -3.60581,-4.4858 -8.3702,-8.1003 -12,-12.5625 -4.661,-3.8313 -8.19282,-8.5021 -12.875,-12.3125 -3.60581,-4.4858 -8.3702,-8.1003 -12,-12.5625 -4.65775,-3.8282 -8.19183,-8.50619 -12.875,-12.31252 -3.60581,-4.4858 -8.3702,-8.10028 -12,-12.5625 -4.65775,-3.82817 -8.19183,-8.50617 -12.875,-12.3125 -2.92385,-3.84572 -7.08558,-6.74213 -10,-10.5937 -4.69236,-3.80034 -8.21817,-8.4838 -12.875,-12.3125 -3.63747,-4.46255 -8.40183,-8.06971 -12,-12.5625 -4.69236,-3.80034 -8.21817,-8.4838 -12.875,-12.3125 -3.64537,-4.45219 -8.39881,-8.07369 -12,-12.5625 -4.69236,-3.80034 -8.21817,-8.4838 -12.875,-12.3125 -3.64373,-4.45324 -8.39269,-8.07766 -12,-12.5625 -4.68734,-3.80701 -8.2257,-8.47378 -12.875,-12.3125 -3.64373,-4.45324 -8.39269,-8.07766 -12,-12.5625 -5.09045,-5.78899 -12.18941,-10.06742 -21.42933,-12.72175 C 171.35961,836.5373 151.17975,828.46551 131,820.39343 z"
       id="path3424"
       inkscape:connector-curvature="0" />
    <g
       id="text2987"
       style="font-size:40px;font-style:normal;font-weight:normal;line-height:125%;letter-spacing:0px;word-spacing:0px;fill:#000000;fill-opacity:1;stroke:none;font-family:Sans">
      <path
         id="path5889"
         style="font-size:144px;font-variant:normal;font-stretch:normal;font-family:Myriad Web Pro;-inkscape-font-specification:Myriad Web Pro"
         d="m 401.088,956.97821 0,-97.056 13.824,0 0,46.656 c 2.49597,-3.59995 15.26396,-19.15193 38.304,-46.656 l 16.704,0 -36.288,41.184 39.168,55.872 -15.84,0 -32.832,-47.376 -9.648,10.8 0,36.576 -13.392,0" />
      <path
         id="path5891"
         style="font-size:144px;font-variant:normal;font-stretch:normal;font-family:Myriad Web Pro;-inkscape-font-specification:Myriad Web Pro"
         d="m 483.20625,956.97821 0,-50.544 c -1e-5,-7.72794 -0.19201,-14.11193 -0.576,-19.152 l 11.808,0 1.152,11.808 c 2.20797,-4.03194 5.44797,-7.27193 9.72,-9.72 4.27196,-2.44793 8.95196,-3.67193 14.04,-3.672 7.29595,7e-5 13.36794,2.59207 18.216,7.776 4.84793,5.13606 7.27193,12.67205 7.272,22.608 l 0,40.896 -13.392,0 0,-39.456 c -6e-5,-6.57595 -1.41606,-11.66395 -4.248,-15.264 -2.83205,-3.64794 -6.93605,-5.47194 -12.312,-5.472 -4.80004,6e-5 -9.04803,1.80006 -12.744,5.4 -3.69603,3.60005 -5.54402,7.99205 -5.544,13.176 l 0,41.616 -13.392,0" />
      <path
         id="path5893"
         style="font-size:144px;font-variant:normal;font-stretch:normal;font-family:Myriad Web Pro;-inkscape-font-specification:Myriad Web Pro"
         d="m 554.421,887.28221 14.688,0 15.84,41.544 c 1.34397,3.45603 2.92797,7.89602 4.752,13.32 1.87196,-6.47998 3.31196,-11.15997 4.32,-14.04 l 14.256,-40.824 14.4,0 -19.728,49.824 c -6.28804,15.84 -11.40004,26.78399 -15.336,32.832 -3.88803,6.04798 -8.13603,10.51198 -12.744,13.392 -4.56002,2.92797 -8.83201,4.75197 -12.816,5.472 l -3.168,-11.232 c 7.24799,-2.25602 12.88798,-6.14401 16.92,-11.664 4.07997,-5.52 6.11997,-9.216 6.12,-11.088 -3e-5,-0.816 -0.28803,-1.92 -0.864,-3.312 l -26.64,-64.224" />
      <path
         id="path5895"
         style="font-size:144px;font-variant:normal;font-stretch:normal;font-family:Myriad Web Pro;-inkscape-font-specification:Myriad Web Pro"
         d="m 636.9735,874.32221 13.104,-3.888 0,16.848 18.576,0 0,10.224 -18.576,0 0,36.288 c -3e-5,4.84802 0.76797,8.35202 2.304,10.512 1.58397,2.11201 4.07997,3.16801 7.488,3.168 3.11996,10e-6 5.66396,-0.28799 7.632,-0.864 l 0.576,10.08 c -3.31204,1.248 -7.29604,1.872 -11.952,1.872 -12.76802,0 -19.15201,-7.96799 -19.152,-23.904 l 0,-37.152 -10.944,0 0,-10.224 10.944,0 0,-12.96" />
    </g>
    <path
       style="fill:url(#radialGradient3769);fill-opacity:1;stroke:#000000;stroke-width:1.5;stroke-linecap:round;stroke-linejoin:miter;stroke-miterlimit:4;stroke-opacity:1;stroke-dasharray:none"
       d="m 55,849.38382 75,-30 75,30 c 0,0 15,120 -75,165.00008 C 40,969.38382 55,849.38382 55,849.38382 z"
       id="path2991"
       inkscape:connector-curvature="0"
       sodipodi:nodetypes="ccccc" />
    <path
       inkscape:connector-curvature="0"
       id="path5055"
       d="m 131,802.39343 c -11.55485,1.53522 -11.94347,14.51557 -11.25,23.59946 0,8.78976 0,17.57953 0,26.36929 -8.70499,2.25753 10.80666,10.39686 2.94736,18.70108 -2.23146,47.43302 -4.46458,94.86596 -6.69736,142.29894 7.36931,15.8836 22.35489,26.247 33.9061,39 59.71323,59.6534 119.29698,119.4269 179.0939,179 14.4289,-9.7678 16.93144,-26.1231 13.96426,-42.0955 -2.12351,-45.3015 -4.24701,-90.603 -6.37051,-135.9045 11.94248,1.7289 1.2986,-6.0839 3.65625,-13.2415 -0.54779,-10.3238 1.12871,-21.0578 -0.89756,-31.1089 -8.64349,-12.30712 -20.95289,-21.7294 -31.13314,-32.80557 -57.23377,-57.2194 -114.37519,-114.49348 -171.68687,-171.6224 -1.52912,-1.30739 -3.48744,-2.21715 -5.53243,-2.1904 z"
       style="fill:url(#linearGradient5886);fill-opacity:1;stroke:none" />
    <path
       style="fill:#880000;fill-opacity:1;stroke:none"
       d="m 118.75,852.36218 c 0,0 0,0 0,-40 1.35299,-4.35521 4.23359,-8.19601 7.5,-10 2.3097,-1.27561 5.1903,-1.27561 7.5,0 3.26641,1.80399 6.14701,5.64479 7.5,10 0,40 0,40 0,40 l -22.5,0 0,0"
       id="path3775"
       inkscape:connector-curvature="0"
       sodipodi:nodetypes="ccaacccc" />
    <path
       style="fill:#ececec;stroke:none"
       d="m 122.5,852.36214 c 0,0 0,0 -7.5,160.00006 2.50081,8.8187 15,20 15,20 0,0 12.49919,-11.1813 15,-20 -7.5,-160.00006 -7.5,-160.00006 -7.5,-160.00006 l 0,0"
       id="path3771"
       inkscape:connector-curvature="0"
       sodipodi:nodetypes="cccccc" />
    <rect
       style="fill:#ededed;fill-opacity:1;stroke:none"
       id="rect3798"
       width="30"
       height="3"
       x="115"
       y="851.36218"
       rx="3"
       ry="3" />
  </g>
</svg>
