<?xml version="1.0" encoding="UTF-8" standalone="no"?>
<!-- Created with Inkscape (http://www.inkscape.org/) -->

<svg
   xmlns:dc="http://purl.org/dc/elements/1.1/"
   xmlns:cc="http://creativecommons.org/ns#"
   xmlns:rdf="http://www.w3.org/1999/02/22-rdf-syntax-ns#"
   xmlns:svg="http://www.w3.org/2000/svg"
   xmlns="http://www.w3.org/2000/svg"
   xmlns:xlink="http://www.w3.org/1999/xlink"
   xmlns:sodipodi="http://sodipodi.sourceforge.net/DTD/sodipodi-0.dtd"
   xmlns:inkscape="http://www.inkscape.org/namespaces/inkscape"
   width="768"
   height="256"
   id="svg2"
   version="1.1"
   inkscape:version="0.48.2 r9819"
   sodipodi:docname="knyt.svg"
   inkscape:export-filename="/Users/thomas/GitHub/Knyt/knyt.png"
   inkscape:export-xdpi="180"
   inkscape:export-ydpi="180">
  <sodipodi:namedview
     id="base"
     pagecolor="#ffffff"
     bordercolor="#666666"
     borderopacity="1.0"
     inkscape:pageopacity="0.0"
     inkscape:pageshadow="2"
     inkscape:zoom="1.4166667"
     inkscape:cx="384"
     inkscape:cy="128"
     inkscape:document-units="px"
     inkscape:current-layer="layer1"
     showgrid="false"
     inkscape:window-width="1219"
     inkscape:window-height="676"
     inkscape:window-x="0"
     inkscape:window-y="0"
     inkscape:window-maximized="0">
    <inkscape:grid
       type="xygrid"
       id="grid2985"
       empspacing="5"
       visible="true"
       enabled="true"
       snapvisiblegridlinesonly="true" />
  </sodipodi:namedview>
  <defs
     id="defs4">
    <linearGradient
       id="linearGradient5012">
      <stop
         style="stop-color:#000000;stop-opacity:0.5;"
         offset="0"
         id="stop5014" />
      <stop
         style="stop-color:#ffffff;stop-opacity:0;"
         offset="1"
         id="stop5016" />
    </linearGradient>
    <linearGradient
       id="linearGradient3761">
      <stop
         style="stop-color:#868686;stop-opacity:1;"
         offset="0"
         id="stop3763" />
      <stop
         style="stop-color:#c1c1c1;stop-opacity:1;"
         offset="1"
         id="stop3765" />
    </linearGradient>
    <radialGradient
       inkscape:collect="always"
       xlink:href="#linearGradient3761"
       id="radialGradient3769"
       cx="120"
       cy="162.05411"
       fx="120"
       fy="162.05411"
       r="52.625"
       gradientTransform="matrix(3.4204275,3.9957321e-7,-4.3287096e-7,3.705463,-280.45124,413.89825)"
       gradientUnits="userSpaceOnUse" />
    <radialGradient
       inkscape:collect="always"
       xlink:href="#linearGradient3761"
       id="radialGradient3815"
       gradientUnits="userSpaceOnUse"
       gradientTransform="matrix(3.4204275,3.9957321e-7,-4.3287096e-7,3.705463,-280.45124,-382.46393)"
       cx="120"
       cy="162.05411"
       fx="120"
       fy="162.05411"
       r="52.625" />
    <linearGradient
       inkscape:collect="always"
       xlink:href="#linearGradient5012"
       id="linearGradient5018"
       x1="100"
       y1="852.36218"
       x2="235"
       y2="987.36218"
       gradientUnits="userSpaceOnUse" />
    <linearGradient
       gradientUnits="userSpaceOnUse"
       y2="987.36218"
       x2="235"
       y1="852.36218"
       x1="100"
       id="linearGradient5886"
       xlink:href="#linearGradient5012"
       inkscape:collect="always" />
    <linearGradient
       inkscape:collect="always"
       xlink:href="#linearGradient5012"
       id="linearGradient9489"
       x1="400"
       y1="852.36218"
       x2="505"
       y2="957.36218"
       gradientUnits="userSpaceOnUse" />
    <linearGradient
       inkscape:collect="always"
       xlink:href="#linearGradient5012"
       id="linearGradient9497"
       x1="480"
       y1="852.36218"
       x2="744.05438"
       y2="1021.3391"
       gradientUnits="userSpaceOnUse" />
    <linearGradient
       inkscape:collect="always"
       xlink:href="#linearGradient5012"
       id="linearGradient9505"
       x1="555.40625"
       y1="1037.6212"
       x2="821.68744"
       y2="1037.6212"
       gradientUnits="userSpaceOnUse" />
    <linearGradient
       inkscape:collect="always"
       xlink:href="#linearGradient5012"
       id="linearGradient9513"
       x1="626.78625"
       y1="1014.6299"
       x2="867.77863"
       y2="1014.6299"
       gradientUnits="userSpaceOnUse" />
    <linearGradient
       inkscape:collect="always"
       xlink:href="#linearGradient5012"
       id="linearGradient9521"
       gradientUnits="userSpaceOnUse"
       x1="480"
       y1="852.36218"
       x2="585"
       y2="957.36218" />
    <linearGradient
       inkscape:collect="always"
       xlink:href="#linearGradient5012"
       id="linearGradient9523"
       gradientUnits="userSpaceOnUse"
       x1="555"
       y1="852.36218"
       x2="660"
       y2="957.36218" />
    <linearGradient
       inkscape:collect="always"
       xlink:href="#linearGradient5012"
       id="linearGradient9525"
       gradientUnits="userSpaceOnUse"
       x1="625"
       y1="852.36218"
       x2="730"
       y2="957.36218" />
    <linearGradient
       inkscape:collect="always"
       xlink:href="#linearGradient5012"
       id="linearGradient3019"
       gradientUnits="userSpaceOnUse"
       x1="100"
       y1="852.36218"
       x2="235"
       y2="987.36218"
       gradientTransform="translate(0,-796.36218)" />
    <linearGradient
       inkscape:collect="always"
       xlink:href="#linearGradient5012"
       id="linearGradient3034"
       gradientUnits="userSpaceOnUse"
       x1="100"
       y1="852.36218"
       x2="235"
       y2="987.36218"
       gradientTransform="translate(0,-796.36218)" />
  </defs>
  <metadata
     id="metadata7">
    <rdf:RDF>
      <cc:Work
         rdf:about="">
        <dc:format>image/svg+xml</dc:format>
        <dc:type
           rdf:resource="http://purl.org/dc/dcmitype/StillImage" />
        <dc:title />
      </cc:Work>
    </rdf:RDF>
  </metadata>
  <g
     inkscape:label="Layer 1"
     inkscape:groupmode="layer"
     id="layer1"
     transform="translate(0,-796.36218)">
    <path
       style="fill:url(#linearGradient3019);fill-opacity:1;stroke:none;stroke-width:1.50000000000000000;stroke-linecap:round;stroke-linejoin:miter;stroke-miterlimit:4;stroke-opacity:1;stroke-dasharray:none"
       d="M 131 6.03125 C 119.87606 7.5092173 119.11109 19.558133 119.6875 28.5625 L 56 54.03125 C 51.41485 106.90218 63.922825 165.43736 104.90625 202.09375 C 108.66027 205.83837 112.40434 209.59694 116.15625 213.34375 C 116.0989 214.56214 116.05735 215.78161 116 217 C 123.36931 232.8836 138.35504 243.247 149.90625 256 C 209.61948 315.6534 269.20308 375.4269 329 435 C 338.7432 428.40423 343.01996 418.80076 343.875 408.34375 C 388.581 378.24492 405.71328 321.18651 404.9375 269.40625 C 405.56367 259.57025 404.94279 249.8266 397.09375 245.6875 C 393.48794 241.2017 388.72355 237.5872 385.09375 233.125 C 380.43275 229.2937 376.90093 224.6229 372.21875 220.8125 C 368.61294 216.3267 363.84855 212.7122 360.21875 208.25 C 355.561 204.4218 352.02692 199.74383 347.34375 195.9375 C 343.73794 191.4517 338.97355 187.83722 335.34375 183.375 C 330.686 179.54683 327.15192 174.86883 322.46875 171.0625 C 319.5449 167.21678 315.38317 164.32032 312.46875 160.46875 C 307.77639 156.66841 304.25058 151.98495 299.59375 148.15625 C 295.95628 143.6937 291.19192 140.08654 287.59375 135.59375 C 282.90139 131.79341 279.37558 127.10995 274.71875 123.28125 C 271.07338 118.82906 266.31994 115.20756 262.71875 110.71875 C 258.02639 106.91841 254.50058 102.23495 249.84375 98.40625 C 246.20002 93.95301 241.45106 90.32859 237.84375 85.84375 C 233.15641 82.03674 229.61805 77.36997 224.96875 73.53125 C 221.32502 69.07801 216.57606 65.45359 212.96875 60.96875 C 207.8783 55.17976 200.77117 50.90433 191.53125 48.25 C 183.24918 44.937168 174.96958 41.625315 166.6875 38.3125 C 156.64042 28.280565 146.58739 18.242826 136.53125 8.21875 C 135.00213 6.91136 133.04499 6.0045 131 6.03125 z "
       transform="translate(0,796.36218)"
       id="path3015" />
    <path
       style="font-size:144px;font-style:normal;font-variant:normal;font-weight:normal;font-stretch:normal;line-height:125%;letter-spacing:0px;word-spacing:0px;fill:url(#linearGradient9525);fill-opacity:1;stroke:none;font-family:Myriad Web Pro;-inkscape-font-specification:Myriad Web Pro"
       d="m 650.00368,870.54233 c -4.36458,1.30208 -7.67035,3.48652 -12.03493,4.7886 -0.53992,4.02183 1.05515,10.17866 -0.74776,12.9375 -3.73116,0.91168 -12.80768,2.71329 -11.04268,9.12114 12.06336,13.28776 12.10914,13.16357 11.79044,15.0574 0.77736,13.16047 -2.31029,27.16414 3.60495,39.43729 20.51524,21.92559 42.42704,42.64816 63.4888,64.10294 46.36709,46.1288 92.28546,92.7572 138.93092,138.5766 8.55308,6.4125 29.85654,3.3437 21.56908,-8.7329 -2.37592,-4.1601 -6.59333,-5.978 -9,-10.1562 -2.75906,-2.9351 -7.31079,-3.8012 -7.46875,-9.8348 0,-9.7738 0,-19.5476 0,-29.3215 6.1875,0 12.375,0 18.5625,0 -0.57176,-3.7504 1.47275,-10.1171 -1.74776,-11.2187 -1.0263,-2.037 -3.3613,-2.7652 -4.22099,-4.9688 -2.13707,-1.1017 -3.46593,-3.0117 -4.96875,-4.7477 -2.03695,-1.0263 -2.7652,-3.3613 -4.96875,-4.221 -1.10426,-2.1346 -2.99322,-3.4845 -4.74776,-4.9688 -1.0263,-2.0369 -3.3613,-2.7652 -4.22099,-4.9687 -2.13707,-1.1018 -3.46593,-3.0118 -4.96875,-4.7478 -2.03695,-1.0263 -2.7652,-3.3613 -4.96875,-4.221 -1.10426,-2.1345 -2.99322,-3.4844 -4.74776,-4.9687 -1.0263,-2.037 -3.3613,-2.7652 -4.22099,-4.9688 -2.13707,-1.1017 -3.46593,-3.0117 -4.96875,-4.7477 -2.05006,-1.0132 -2.74543,-3.3811 -4.96875,-4.221 -1.10177,-2.1371 -3.01174,-3.4659 -4.74776,-4.9688 -1.0263,-2.0369 -3.3613,-2.7652 -4.22099,-4.9687 -2.13707,-1.1018 -3.46593,-3.0118 -4.96875,-4.7478 -2.05006,-1.0132 -2.74543,-3.381 -4.96875,-4.221 -1.10177,-2.137 -3.01174,-3.4659 -4.74776,-4.9687 -1.12567,-1.8639 -3.0375,-2.9417 -4.22099,-4.7477 -2.08202,-0.9813 -2.70624,-3.4203 -4.96875,-4.221 -1.11631,-2.11213 -3.0011,-3.45576 -4.71651,-4.96877 -1.02437,-2.04929 -3.43445,-2.71288 -4.25224,-4.96875 -2.08942,-1.139 -3.46952,-2.98732 -4.96875,-4.71651 -27.36404,-28.09322 0.10084,0.002 -100.15625,-98.53125 -16.9481,-16.76964 -0.13001,-0.35207 -16.99632,-16.97839 z"
       id="path8650"
       inkscape:connector-curvature="0"
       sodipodi:nodetypes="ccccccccccccccccccccccccccccccccccccc" />
    <path
       inkscape:connector-curvature="0"
       id="path7780"
       d="m 555.40625,888.26843 c 9.05886,22.04507 18.4356,43.97017 27.294,66.0909 -0.0723,12.73313 -10.55199,23.91047 -20.64415,33.77543 204.36852,197.90144 202.47313,199.23274 205.19661,197.75834 20.95516,-8.8377 27.20633,-32.9684 35.56015,-51.9135 6.29152,-15.8933 12.58302,-31.7867 18.87459,-47.68 -3.21562,-1.3473 -4.19924,-4.1601 -6.77031,-5.9688 -2.29194,-1.9219 -3.50728,-4.5417 -6.57344,-5.9687 -1.21807,-2.5123 -3.38701,-4.3846 -5.9375,-6 -1.19726,-2.4272 -3.49772,-4.0418 -5.39531,-5.9688 -1.9029,-2.0804 -3.98192,-3.9729 -5.96875,-5.9687 -1.58458,-2.1128 -4.23745,-3.443 -5.16719,-5.9688 -52.92921,-53.1501 -0.16772,-0.3525 -160.21875,-160.18737 -1.50676,-2.25236 -6.39746,-2.22691 -11.58747,-2 -6.55596,-2.09282 -6.13213,5.63984 -8.21815,9.83937 -2.2956,6.09917 -4.57862,14.09074 -6.88188,19.03563 -28.5267,-28.45873 -2.51733,-2.19861 -29.87154,-29.80914 -4.3259,3.93302 -7.3734,1.48868 -11.82842,0.93414 -0.62071,0 -1.24196,0 -1.86249,0 z"
       style="font-size:144px;font-style:normal;font-variant:normal;font-weight:normal;font-stretch:normal;line-height:125%;letter-spacing:0px;word-spacing:0px;fill:url(#linearGradient9523);fill-opacity:1;stroke:none;font-family:Myriad Web Pro;-inkscape-font-specification:Myriad Web Pro"
       sodipodi:nodetypes="ccccccccccccccccccc" />
    <path
       style="font-size:144px;font-style:normal;font-variant:normal;font-weight:normal;font-stretch:normal;line-height:125%;letter-spacing:0px;word-spacing:0px;fill:url(#linearGradient9521);fill-opacity:1;stroke:none;font-family:Myriad Web Pro;-inkscape-font-specification:Myriad Web Pro"
       d="m 520.34375,886.70593 c -8.34634,-3.02073 -17.29596,10.00231 -21.68634,5.5625 -1.79448,-2.73436 -4.11065,-4.89585 -9.2111,-4 -11.58603,-2.43026 -2.61683,14.69758 -5.25851,21.40306 0,16.10523 0,32.21046 0,48.31569 188.57946,188.31892 91.05044,91.00682 189.0625,189.03122 2.11816,1.1211 3.51206,2.9664 4.96875,4.749 2.26556,0.9736 2.63712,3.8413 5.49787,4.2198 3.60457,-1.1034 11.86126,2.4453 11.87713,-2.2468 0.0208,-11.1782 -0.0416,-22.4396 0.0312,-33.5657 1.13961,2.0892 2.98687,3.4707 4.71769,4.9687 1.03826,2.035 3.43602,2.7106 4.25106,4.9688 2.0892,1.1396 3.47075,2.9869 4.96875,4.7177 2.03501,1.0382 2.71052,3.436 4.96875,4.251 1.13961,2.0892 2.98687,3.4708 4.71769,4.9688 1.03826,2.035 3.43602,2.7105 4.25106,4.9687 2.0892,1.1396 3.47075,2.9869 4.96875,4.7177 1.44101,2.4621 5.26791,2.5382 9.45811,2.2511 6.71328,1.9949 6.36797,-3.0688 5.91689,-8.2383 -0.50483,-14.7656 1.23732,-29.7404 -1.39572,-44.325 -3.72526,-12.4234 -15.65469,-19.4467 -23.79178,-28.843 -60.64251,-60.6545 -121.28068,-121.33898 -181.96923,-181.94618 -4.43765,-4.00055 -10.40768,-5.99927 -16.34352,-5.92879 z"
       id="path6907"
       inkscape:connector-curvature="0"
       sodipodi:nodetypes="ccccccccccccccccccccccc" />
    <path
       inkscape:connector-curvature="0"
       id="path6034"
       d="m 402.09375,860.92468 c 0,32.35417 0,64.70833 0,97.0625 501.51388,487.52072 -59.22397,-10.65717 184.86203,184.06252 0.94648,2.0995 3.39495,2.697 4.16922,4.9687 2.12233,1.1442 3.55695,2.9761 5,4.7996 2.32361,0.922 2.58774,3.9036 5.5678,4.1692 3.45939,-1.2759 12.2385,2.768 11.80715,-2.3986 0,-11.3984 0,-22.7968 0,-34.1952 3.41931,-7.1066 6.48602,2.2859 9.93745,3.75 6.39672,6.8934 13.19074,13.0263 19.59375,19.9063 4.40602,4.1685 8.70852,8.4602 12.9375,12.9374 5.28125,0 10.5625,0 15.84375,0 -13.0625,-18.625 -26.12504,-37.2499 -39.1875,-55.875 12.10417,-13.7291 24.20841,-27.4582 36.3125,-41.1875 -57.46631,-57.3915 0.69181,0.3993 -199.24838,-198.81199 -10.57929,4.41628 -20.55827,7.55567 -25.93015,13.31114 -3.86264,6.55577 -1.2631,8.60347 -4.50519,9.90177 -5.9576,-5.40738 -2.07217,-1.88258 -24.56239,-23.41631 -3.89049,5.35269 1.13652,-0.0478 -3.58219,1.01547 -3.00512,0 -6.01023,0 -9.01535,0 z"
       style="font-size:144px;font-style:normal;font-variant:normal;font-weight:normal;font-stretch:normal;line-height:125%;letter-spacing:0px;word-spacing:0px;fill:url(#linearGradient9489);fill-opacity:1;stroke:none;font-family:Myriad Web Pro;-inkscape-font-specification:Myriad Web Pro"
       sodipodi:nodetypes="cccccccccccccccccccc" />
    <g
       id="text2987"
       style="font-size:40px;font-style:normal;font-weight:normal;line-height:125%;letter-spacing:0px;word-spacing:0px;fill:#000000;fill-opacity:1;stroke:none;font-family:Sans">
      <path
         id="path5889"
         style="font-size:144px;font-variant:normal;font-stretch:normal;font-family:Myriad Web Pro;-inkscape-font-specification:Myriad Web Pro"
         d="m 401.088,956.97821 0,-97.056 13.824,0 0,46.656 c 2.49597,-3.59995 15.26396,-19.15193 38.304,-46.656 l 16.704,0 -36.288,41.184 39.168,55.872 -15.84,0 -32.832,-47.376 -9.648,10.8 0,36.576 -13.392,0" />
      <path
         id="path5891"
         style="font-size:144px;font-variant:normal;font-stretch:normal;font-family:Myriad Web Pro;-inkscape-font-specification:Myriad Web Pro"
         d="m 483.20625,956.97821 0,-50.544 c -1e-5,-7.72794 -0.19201,-14.11193 -0.576,-19.152 l 11.808,0 1.152,11.808 c 2.20797,-4.03194 5.44797,-7.27193 9.72,-9.72 4.27196,-2.44793 8.95196,-3.67193 14.04,-3.672 7.29595,7e-5 13.36794,2.59207 18.216,7.776 4.84793,5.13606 7.27193,12.67205 7.272,22.608 l 0,40.896 -13.392,0 0,-39.456 c -6e-5,-6.57595 -1.41606,-11.66395 -4.248,-15.264 -2.83205,-3.64794 -6.93605,-5.47194 -12.312,-5.472 -4.80004,6e-5 -9.04803,1.80006 -12.744,5.4 -3.69603,3.60005 -5.54402,7.99205 -5.544,13.176 l 0,41.616 -13.392,0" />
      <path
         id="path5893"
         style="font-size:144px;font-variant:normal;font-stretch:normal;font-family:Myriad Web Pro;-inkscape-font-specification:Myriad Web Pro"
         d="m 554.421,887.28221 14.688,0 15.84,41.544 c 1.34397,3.45603 2.92797,7.89602 4.752,13.32 1.87196,-6.47998 3.31196,-11.15997 4.32,-14.04 l 14.256,-40.824 14.4,0 -19.728,49.824 c -6.28804,15.84 -11.40004,26.78399 -15.336,32.832 -3.88803,6.04798 -8.13603,10.51198 -12.744,13.392 -4.56002,2.92797 -8.83201,4.75197 -12.816,5.472 l -3.168,-11.232 c 7.24799,-2.25602 12.88798,-6.14401 16.92,-11.664 4.07997,-5.52 6.11997,-9.216 6.12,-11.088 -3e-5,-0.816 -0.28803,-1.92 -0.864,-3.312 l -26.64,-64.224" />
      <path
         id="path5895"
         style="font-size:144px;font-variant:normal;font-stretch:normal;font-family:Myriad Web Pro;-inkscape-font-specification:Myriad Web Pro"
         d="m 636.9735,874.32221 13.104,-3.888 0,16.848 18.576,0 0,10.224 -18.576,0 0,36.288 c -3e-5,4.84802 0.76797,8.35202 2.304,10.512 1.58397,2.11201 4.07997,3.16801 7.488,3.168 3.11996,10e-6 5.66396,-0.28799 7.632,-0.864 l 0.576,10.08 c -3.31204,1.248 -7.29604,1.872 -11.952,1.872 -12.76802,0 -19.15201,-7.96799 -19.152,-23.904 l 0,-37.152 -10.944,0 0,-10.224 10.944,0 0,-12.96" />
    </g>
    <path
       style="fill:url(#radialGradient3769);fill-opacity:1;stroke:#000000;stroke-width:1.5;stroke-linecap:round;stroke-linejoin:miter;stroke-miterlimit:4;stroke-opacity:1;stroke-dasharray:none"
       d="m 55,849.38382 75,-30 75,30 c 0,0 15,120 -75,165.00008 C 40,969.38382 55,849.38382 55,849.38382 z"
       id="path2991"
       inkscape:connector-curvature="0"
       sodipodi:nodetypes="ccccc" />
    <path
       style="fill:url(#linearGradient3034);fill-opacity:1;stroke:none"
       d="M 131 6.03125 C 119.44515 7.56647 119.05653 20.54111 119.75 29.625 L 119.75 56 C 111.04501 58.25753 130.5468 66.38328 122.6875 74.6875 C 120.56432 119.81884 118.43696 164.96245 116.3125 210.09375 C 120.58352 212.93435 125.13409 215.59829 130 218.03125 C 194.51512 185.77363 205.06716 114.97644 205.875 77.46875 C 182.77775 54.372894 159.66672 31.280443 136.53125 8.21875 C 135.00213 6.91136 133.04499 6.0045 131 6.03125 z M 308.46875 180.125 L 308.46875 241.1875 L 134.9375 241.1875 C 139.99939 246.08428 145.23681 250.84475 149.90625 256 C 209.61948 315.6534 269.20308 375.4269 329 435 C 343.4289 425.2322 345.93593 408.87865 342.96875 392.90625 L 336.59375 257 C 348.53623 258.7289 337.89235 250.9076 340.25 243.75 C 339.70221 233.4262 341.37002 222.70735 339.34375 212.65625 C 330.77207 200.45138 318.59911 191.08221 308.46875 180.125 z "
       transform="translate(0,796.36218)"
       id="path5055" />
    <path
       style="fill:#880000;fill-opacity:1;stroke:none"
       d="m 118.75,852.36218 c 0,0 0,0 0,-40 1.35299,-4.35521 4.23359,-8.19601 7.5,-10 2.3097,-1.27561 5.1903,-1.27561 7.5,0 3.26641,1.80399 6.14701,5.64479 7.5,10 0,40 0,40 0,40 l -22.5,0 0,0"
       id="path3775"
       inkscape:connector-curvature="0"
       sodipodi:nodetypes="ccaacccc" />
    <path
       style="fill:#ececec;stroke:none"
       d="m 122.5,852.36214 c 0,0 0,0 -7.5,160.00006 2.50081,8.8187 15,20 15,20 0,0 12.49919,-11.1813 15,-20 -7.5,-160.00006 -7.5,-160.00006 -7.5,-160.00006 l 0,0"
       id="path3771"
       inkscape:connector-curvature="0"
       sodipodi:nodetypes="cccccc" />
    <rect
       style="fill:#ededed;fill-opacity:1;stroke:none"
       id="rect3798"
       width="30"
       height="3"
       x="115"
       y="851.36218"
       rx="3"
       ry="3" />
  </g>
</svg>
