<?xml version="1.0" encoding="UTF-8" standalone="no"?>
<!-- Created with Inkscape (http://www.inkscape.org/) -->

<svg
   xmlns:dc="http://purl.org/dc/elements/1.1/"
   xmlns:cc="http://creativecommons.org/ns#"
   xmlns:rdf="http://www.w3.org/1999/02/22-rdf-syntax-ns#"
   xmlns:svg="http://www.w3.org/2000/svg"
   xmlns="http://www.w3.org/2000/svg"
   xmlns:xlink="http://www.w3.org/1999/xlink"
   xmlns:sodipodi="http://sodipodi.sourceforge.net/DTD/sodipodi-0.dtd"
   xmlns:inkscape="http://www.inkscape.org/namespaces/inkscape"
   width="768"
   height="256"
   id="svg2"
   version="1.1"
   inkscape:version="0.48.2 r9819"
   sodipodi:docname="knyt.svg"
   inkscape:export-filename="/Users/thomas/GitHub/Knyt/knyt.png"
   inkscape:export-xdpi="180"
   inkscape:export-ydpi="180">
  <sodipodi:namedview
     id="base"
     pagecolor="#ffffff"
     bordercolor="#666666"
     borderopacity="1.0"
     inkscape:pageopacity="0.0"
     inkscape:pageshadow="2"
     inkscape:zoom="1.4166667"
     inkscape:cx="384"
     inkscape:cy="128"
     inkscape:document-units="px"
     inkscape:current-layer="layer1"
     showgrid="false"
     inkscape:window-width="1219"
     inkscape:window-height="676"
     inkscape:window-x="0"
     inkscape:window-y="0"
     inkscape:window-maximized="0">
    <inkscape:grid
       type="xygrid"
       id="grid2985"
       empspacing="5"
       visible="true"
       enabled="true"
       snapvisiblegridlinesonly="true" />
  </sodipodi:namedview>
  <defs
     id="defs4">
    <linearGradient
       id="linearGradient5012">
      <stop
         style="stop-color:#000000;stop-opacity:0.5;"
         offset="0"
         id="stop5014" />
      <stop
         style="stop-color:#ffffff;stop-opacity:0;"
         offset="1"
         id="stop5016" />
    </linearGradient>
    <linearGradient
       id="linearGradient3761">
      <stop
         style="stop-color:#868686;stop-opacity:1;"
         offset="0"
         id="stop3763" />
      <stop
         style="stop-color:#c1c1c1;stop-opacity:1;"
         offset="1"
         id="stop3765" />
    </linearGradient>
    <radialGradient
       inkscape:collect="always"
       xlink:href="#linearGradient3761"
       id="radialGradient3769"
       cx="120"
       cy="162.05411"
       fx="120"
       fy="162.05411"
       r="52.625"
       gradientTransform="matrix(3.4204275,3.9957321e-7,-4.3287096e-7,3.705463,-280.45124,413.89825)"
       gradientUnits="userSpaceOnUse" />
    <radialGradient
       inkscape:collect="always"
       xlink:href="#linearGradient3761"
       id="radialGradient3815"
       gradientUnits="userSpaceOnUse"
       gradientTransform="matrix(3.4204275,3.9957321e-7,-4.3287096e-7,3.705463,-280.45124,-382.46393)"
       cx="120"
       cy="162.05411"
       fx="120"
       fy="162.05411"
       r="52.625" />
    <linearGradient
       inkscape:collect="always"
       xlink:href="#linearGradient5012"
       id="linearGradient5018"
       x1="100"
       y1="852.36218"
       x2="235"
       y2="987.36218"
       gradientUnits="userSpaceOnUse" />
    <linearGradient
       gradientUnits="userSpaceOnUse"
       y2="987.36218"
       x2="235"
       y1="852.36218"
       x1="100"
       id="linearGradient5886"
       xlink:href="#linearGradient5012"
       inkscape:collect="always" />
    <linearGradient
       inkscape:collect="always"
       xlink:href="#linearGradient5012"
       id="linearGradient9489"
       x1="400"
       y1="852.36218"
       x2="505"
       y2="957.36218"
       gradientUnits="userSpaceOnUse" />
    <linearGradient
       inkscape:collect="always"
       xlink:href="#linearGradient5012"
       id="linearGradient9497"
       x1="480"
       y1="852.36218"
       x2="744.05438"
       y2="1021.3391"
       gradientUnits="userSpaceOnUse" />
    <linearGradient
       inkscape:collect="always"
       xlink:href="#linearGradient5012"
       id="linearGradient9505"
       x1="555.40625"
       y1="1037.6212"
       x2="821.68744"
       y2="1037.6212"
       gradientUnits="userSpaceOnUse" />
    <linearGradient
       inkscape:collect="always"
       xlink:href="#linearGradient5012"
       id="linearGradient9513"
       x1="626.78625"
       y1="1014.6299"
       x2="867.77863"
       y2="1014.6299"
       gradientUnits="userSpaceOnUse" />
    <linearGradient
       inkscape:collect="always"
       xlink:href="#linearGradient5012"
       id="linearGradient9521"
       gradientUnits="userSpaceOnUse"
       x1="480"
       y1="852.36218"
       x2="585"
       y2="957.36218" />
    <linearGradient
       inkscape:collect="always"
       xlink:href="#linearGradient5012"
       id="linearGradient9523"
       gradientUnits="userSpaceOnUse"
       x1="555"
       y1="852.36218"
       x2="660"
       y2="957.36218" />
    <linearGradient
       inkscape:collect="always"
       xlink:href="#linearGradient5012"
       id="linearGradient9525"
       gradientUnits="userSpaceOnUse"
       x1="625"
       y1="852.36218"
       x2="730"
       y2="957.36218" />
    <linearGradient
       inkscape:collect="always"
       xlink:href="#linearGradient5012"
       id="linearGradient3019"
       gradientUnits="userSpaceOnUse"
       x1="100"
       y1="852.36218"
       x2="235"
       y2="987.36218"
       gradientTransform="translate(0,-796.36218)" />
    <linearGradient
       inkscape:collect="always"
       xlink:href="#linearGradient5012"
       id="linearGradient3034"
       gradientUnits="userSpaceOnUse"
       x1="100"
       y1="852.36218"
       x2="235"
       y2="987.36218"
       gradientTransform="translate(0,-796.36218)" />
    <linearGradient
       inkscape:collect="always"
       xlink:href="#linearGradient5012"
       id="linearGradient3023"
       gradientUnits="userSpaceOnUse"
       gradientTransform="translate(0,-796.36218)"
       x1="100"
       y1="852.36218"
       x2="235"
       y2="987.36218" />
  </defs>
  <metadata
     id="metadata7">
    <rdf:RDF>
      <cc:Work
         rdf:about="">
        <dc:format>image/svg+xml</dc:format>
        <dc:type
           rdf:resource="http://purl.org/dc/dcmitype/StillImage" />
        <dc:title />
      </cc:Work>
    </rdf:RDF>
  </metadata>
  <g
     inkscape:label="Layer 1"
     inkscape:groupmode="layer"
     id="layer1"
     transform="translate(0,-796.36218)">
    <path
       style="fill:url(#linearGradient3019);fill-opacity:1;stroke:none;stroke-width:1.50000000000000000;stroke-linecap:round;stroke-linejoin:miter;stroke-miterlimit:4;stroke-opacity:1;stroke-dasharray:none"
       d="M 131 6.03125 C 119.87606 7.5092173 119.11109 19.558133 119.6875 28.5625 L 56 54.03125 C 51.41485 106.90218 63.922825 165.43736 104.90625 202.09375 C 108.66027 205.83837 112.40434 209.59694 116.15625 213.34375 C 116.0989 214.56214 116.05735 215.78161 116 217 C 123.36931 232.8836 138.35504 243.247 149.90625 256 C 209.61948 315.6534 269.20308 375.4269 329 435 C 338.7432 428.40423 343.01996 418.80076 343.875 408.34375 C 388.581 378.24492 405.71328 321.18651 404.9375 269.40625 C 405.56367 259.57025 404.94279 249.8266 397.09375 245.6875 C 393.48794 241.2017 388.72355 237.5872 385.09375 233.125 C 380.43275 229.2937 376.90093 224.6229 372.21875 220.8125 C 368.61294 216.3267 363.84855 212.7122 360.21875 208.25 C 355.561 204.4218 352.02692 199.74383 347.34375 195.9375 C 343.73794 191.4517 338.97355 187.83722 335.34375 183.375 C 330.686 179.54683 327.15192 174.86883 322.46875 171.0625 C 319.5449 167.21678 315.38317 164.32032 312.46875 160.46875 C 307.77639 156.66841 304.25058 151.98495 299.59375 148.15625 C 295.95628 143.6937 291.19192 140.08654 287.59375 135.59375 C 282.90139 131.79341 279.37558 127.10995 274.71875 123.28125 C 271.07338 118.82906 266.31994 115.20756 262.71875 110.71875 C 258.02639 106.91841 254.50058 102.23495 249.84375 98.40625 C 246.20002 93.95301 241.45106 90.32859 237.84375 85.84375 C 233.15641 82.03674 229.61805 77.36997 224.96875 73.53125 C 221.32502 69.07801 216.57606 65.45359 212.96875 60.96875 C 207.8783 55.17976 200.77117 50.90433 191.53125 48.25 C 183.24918 44.937168 174.96958 41.625315 166.6875 38.3125 C 156.64042 28.280565 146.58739 18.242826 136.53125 8.21875 C 135.00213 6.91136 133.04499 6.0045 131 6.03125 z "
       id="path3015"
       transform="translate(0,796.36218)" />
    <path
       style="font-size:144px;font-style:normal;font-variant:normal;font-weight:normal;font-stretch:normal;line-height:125%;letter-spacing:0px;word-spacing:0px;fill:url(#linearGradient9525);fill-opacity:1;stroke:none;font-family:Myriad Web Pro;-inkscape-font-specification:Myriad Web Pro"
       d="m 650.00368,870.54233 c -4.36458,1.30208 -7.67035,3.48652 -12.03493,4.7886 -0.53992,4.02183 1.05515,10.17866 -0.74776,12.9375 -3.73116,0.91168 -12.80768,2.71329 -11.04268,9.12114 12.06336,13.28776 12.10914,13.16357 11.79044,15.0574 0.77736,13.16047 -2.31029,27.16414 3.60495,39.43729 20.51524,21.92559 42.42704,42.64816 63.4888,64.10294 46.36709,46.1288 92.28546,92.7572 138.93092,138.5766 8.55308,6.4125 29.85654,3.3437 21.56908,-8.7329 -2.37592,-4.1601 -6.59333,-5.978 -9,-10.1562 -2.75906,-2.9351 -7.31079,-3.8012 -7.46875,-9.8348 0,-9.7738 0,-19.5476 0,-29.3215 6.1875,0 12.375,0 18.5625,0 -0.57176,-3.7504 1.47275,-10.1171 -1.74776,-11.2187 -1.0263,-2.037 -3.3613,-2.7652 -4.22099,-4.9688 -2.13707,-1.1017 -3.46593,-3.0117 -4.96875,-4.7477 -2.03695,-1.0263 -2.7652,-3.3613 -4.96875,-4.221 -1.10426,-2.1346 -2.99322,-3.4845 -4.74776,-4.9688 -1.0263,-2.0369 -3.3613,-2.7652 -4.22099,-4.9687 -2.13707,-1.1018 -3.46593,-3.0118 -4.96875,-4.7478 -2.03695,-1.0263 -2.7652,-3.3613 -4.96875,-4.221 -1.10426,-2.1345 -2.99322,-3.4844 -4.74776,-4.9687 -1.0263,-2.037 -3.3613,-2.7652 -4.22099,-4.9688 -2.13707,-1.1017 -3.46593,-3.0117 -4.96875,-4.7477 -2.05006,-1.0132 -2.74543,-3.3811 -4.96875,-4.221 -1.10177,-2.1371 -3.01174,-3.4659 -4.74776,-4.9688 -1.0263,-2.0369 -3.3613,-2.7652 -4.22099,-4.9687 -2.13707,-1.1018 -3.46593,-3.0118 -4.96875,-4.7478 -2.05006,-1.0132 -2.74543,-3.381 -4.96875,-4.221 -1.10177,-2.137 -3.01174,-3.4659 -4.74776,-4.9687 -1.12567,-1.8639 -3.0375,-2.9417 -4.22099,-4.7477 -2.08202,-0.9813 -2.70624,-3.4203 -4.96875,-4.221 -1.11631,-2.11213 -3.0011,-3.45576 -4.71651,-4.96877 -1.02437,-2.04929 -3.43445,-2.71288 -4.25224,-4.96875 -2.08942,-1.139 -3.46952,-2.98732 -4.96875,-4.71651 -27.36404,-28.09322 0.10084,0.002 -100.15625,-98.53125 -16.9481,-16.76964 -0.13001,-0.35207 -16.99632,-16.97839 z"
       id="path8650"
       inkscape:connector-curvature="0"
       sodipodi:nodetypes="ccccccccccccccccccccccccccccccccccccc" />
    <path
       inkscape:connector-curvature="0"
       id="path7780"
       d="m 555.40625,888.26843 c 9.05886,22.04507 18.4356,43.97017 27.294,66.0909 -0.0723,12.73313 -10.55199,23.91047 -20.64415,33.77543 204.36852,197.90144 202.47313,199.23274 205.19661,197.75834 20.95516,-8.8377 27.20633,-32.9684 35.56015,-51.9135 6.29152,-15.8933 12.58302,-31.7867 18.87459,-47.68 -3.21562,-1.3473 -4.19924,-4.1601 -6.77031,-5.9688 -2.29194,-1.9219 -3.50728,-4.5417 -6.57344,-5.9687 -1.21807,-2.5123 -3.38701,-4.3846 -5.9375,-6 -1.19726,-2.4272 -3.49772,-4.0418 -5.39531,-5.9688 -1.9029,-2.0804 -3.98192,-3.9729 -5.96875,-5.9687 -1.58458,-2.1128 -4.23745,-3.443 -5.16719,-5.9688 -52.92921,-53.1501 -0.16772,-0.3525 -160.21875,-160.18737 -1.50676,-2.25236 -6.39746,-2.22691 -11.58747,-2 -6.55596,-2.09282 -6.13213,5.63984 -8.21815,9.83937 -2.2956,6.09917 -4.57862,14.09074 -6.88188,19.03563 -28.5267,-28.45873 -2.51733,-2.19861 -29.87154,-29.80914 -4.3259,3.93302 -7.3734,1.48868 -11.82842,0.93414 -0.62071,0 -1.24196,0 -1.86249,0 z"
       style="font-size:144px;font-style:normal;font-variant:normal;font-weight:normal;font-stretch:normal;line-height:125%;letter-spacing:0px;word-spacing:0px;fill:url(#linearGradient9523);fill-opacity:1;stroke:none;font-family:Myriad Web Pro;-inkscape-font-specification:Myriad Web Pro"
       sodipodi:nodetypes="ccccccccccccccccccc" />
    <path
       style="font-size:144px;font-style:normal;font-variant:normal;font-weight:normal;font-stretch:normal;line-height:125%;letter-spacing:0px;word-spacing:0px;fill:url(#linearGradient9521);fill-opacity:1;stroke:none;font-family:Myriad Web Pro;-inkscape-font-specification:Myriad Web Pro"
       d="m 520.34375,886.70593 c -8.34634,-3.02073 -17.29596,10.00231 -21.68634,5.5625 -1.79448,-2.73436 -4.11065,-4.89585 -9.2111,-4 -11.58603,-2.43026 -2.61683,14.69758 -5.25851,21.40306 0,16.10523 0,32.21046 0,48.31569 188.57946,188.31892 91.05044,91.00682 189.0625,189.03122 2.11816,1.1211 3.51206,2.9664 4.96875,4.749 2.26556,0.9736 2.63712,3.8413 5.49787,4.2198 3.60457,-1.1034 11.86126,2.4453 11.87713,-2.2468 0.0208,-11.1782 -0.0416,-22.4396 0.0312,-33.5657 1.13961,2.0892 2.98687,3.4707 4.71769,4.9687 1.03826,2.035 3.43602,2.7106 4.25106,4.9688 2.0892,1.1396 3.47075,2.9869 4.96875,4.7177 2.03501,1.0382 2.71052,3.436 4.96875,4.251 1.13961,2.0892 2.98687,3.4708 4.71769,4.9688 1.03826,2.035 3.43602,2.7105 4.25106,4.9687 2.0892,1.1396 3.47075,2.9869 4.96875,4.7177 1.44101,2.4621 5.26791,2.5382 9.45811,2.2511 6.71328,1.9949 6.36797,-3.0688 5.91689,-8.2383 -0.50483,-14.7656 1.23732,-29.7404 -1.39572,-44.325 -3.72526,-12.4234 -15.65469,-19.4467 -23.79178,-28.843 -60.64251,-60.6545 -121.28068,-121.33898 -181.96923,-181.94618 -4.43765,-4.00055 -10.40768,-5.99927 -16.34352,-5.92879 z"
       id="path6907"
       inkscape:connector-curvature="0"
       sodipodi:nodetypes="ccccccccccccccccccccccc" />
    <path
       inkscape:connector-curvature="0"
       id="path6034"
       d="m 402.09375,860.92468 c 0,32.35417 0,64.70833 0,97.0625 501.51388,487.52072 -59.22397,-10.65717 184.86203,184.06252 0.94648,2.0995 3.39495,2.697 4.16922,4.9687 2.12233,1.1442 3.55695,2.9761 5,4.7996 2.32361,0.922 2.58774,3.9036 5.5678,4.1692 3.45939,-1.2759 12.2385,2.768 11.80715,-2.3986 0,-11.3984 0,-22.7968 0,-34.1952 3.41931,-7.1066 6.48602,2.2859 9.93745,3.75 6.39672,6.8934 13.19074,13.0263 19.59375,19.9063 4.40602,4.1685 8.70852,8.4602 12.9375,12.9374 5.28125,0 10.5625,0 15.84375,0 -13.0625,-18.625 -26.12504,-37.2499 -39.1875,-55.875 12.10417,-13.7291 24.20841,-27.4582 36.3125,-41.1875 -57.46631,-57.3915 0.69181,0.3993 -199.24838,-198.81199 -10.57929,4.41628 -20.55827,7.55567 -25.93015,13.31114 -3.86264,6.55577 -1.2631,8.60347 -4.50519,9.90177 -5.9576,-5.40738 -2.07217,-1.88258 -24.56239,-23.41631 -3.89049,5.35269 1.13652,-0.0478 -3.58219,1.01547 -3.00512,0 -6.01023,0 -9.01535,0 z"
       style="font-size:144px;font-style:normal;font-variant:normal;font-weight:normal;font-stretch:normal;line-height:125%;letter-spacing:0px;word-spacing:0px;fill:url(#linearGradient9489);fill-opacity:1;stroke:none;font-family:Myriad Web Pro;-inkscape-font-specification:Myriad Web Pro"
       sodipodi:nodetypes="cccccccccccccccccccc" />
    <g
       id="text2987"
       style="font-size:40px;font-style:normal;font-weight:normal;line-height:125%;letter-spacing:0px;word-spacing:0px;fill:#000000;fill-opacity:1;stroke:none;font-family:Sans">
      <path
         id="path5889"
         style="font-size:144px;font-variant:normal;font-stretch:normal;font-family:Myriad Web Pro;-inkscape-font-specification:Myriad Web Pro"
         d="m 401.088,956.97821 0,-97.056 13.824,0 0,46.656 c 2.49597,-3.59995 15.26396,-19.15193 38.304,-46.656 l 16.704,0 -36.288,41.184 39.168,55.872 -15.84,0 -32.832,-47.376 -9.648,10.8 0,36.576 -13.392,0" />
      <path
         id="path5891"
         style="font-size:144px;font-variant:normal;font-stretch:normal;font-family:Myriad Web Pro;-inkscape-font-specification:Myriad Web Pro"
         d="m 483.20625,956.97821 0,-50.544 c -1e-5,-7.72794 -0.19201,-14.11193 -0.576,-19.152 l 11.808,0 1.152,11.808 c 2.20797,-4.03194 5.44797,-7.27193 9.72,-9.72 4.27196,-2.44793 8.95196,-3.67193 14.04,-3.672 7.29595,7e-5 13.36794,2.59207 18.216,7.776 4.84793,5.13606 7.27193,12.67205 7.272,22.608 l 0,40.896 -13.392,0 0,-39.456 c -6e-5,-6.57595 -1.41606,-11.66395 -4.248,-15.264 -2.83205,-3.64794 -6.93605,-5.47194 -12.312,-5.472 -4.80004,6e-5 -9.04803,1.80006 -12.744,5.4 -3.69603,3.60005 -5.54402,7.99205 -5.544,13.176 l 0,41.616 -13.392,0" />
      <path
         id="path5893"
         style="font-size:144px;font-variant:normal;font-stretch:normal;font-family:Myriad Web Pro;-inkscape-font-specification:Myriad Web Pro"
         d="m 554.421,887.28221 14.688,0 15.84,41.544 c 1.34397,3.45603 2.92797,7.89602 4.752,13.32 1.87196,-6.47998 3.31196,-11.15997 4.32,-14.04 l 14.256,-40.824 14.4,0 -19.728,49.824 c -6.28804,15.84 -11.40004,26.78399 -15.336,32.832 -3.88803,6.04798 -8.13603,10.51198 -12.744,13.392 -4.56002,2.92797 -8.83201,4.75197 -12.816,5.472 l -3.168,-11.232 c 7.24799,-2.25602 12.88798,-6.14401 16.92,-11.664 4.07997,-5.52 6.11997,-9.216 6.12,-11.088 -3e-5,-0.816 -0.28803,-1.92 -0.864,-3.312 l -26.64,-64.224" />
      <path
         id="path5895"
         style="font-size:144px;font-variant:normal;font-stretch:normal;font-family:Myriad Web Pro;-inkscape-font-specification:Myriad Web Pro"
         d="m 636.9735,874.32221 13.104,-3.888 0,16.848 18.576,0 0,10.224 -18.576,0 0,36.288 c -3e-5,4.84802 0.76797,8.35202 2.304,10.512 1.58397,2.11201 4.07997,3.16801 7.488,3.168 3.11996,10e-6 5.66396,-0.28799 7.632,-0.864 l 0.576,10.08 c -3.31204,1.248 -7.29604,1.872 -11.952,1.872 -12.76802,0 -19.15201,-7.96799 -19.152,-23.904 l 0,-37.152 -10.944,0 0,-10.224 10.944,0 0,-12.96" />
    </g>
    <path
       style="fill:url(#radialGradient3769);fill-opacity:1;stroke:#000000;stroke-width:1.5;stroke-linecap:round;stroke-linejoin:miter;stroke-miterlimit:4;stroke-opacity:1;stroke-dasharray:none"
       d="m 55,849.38382 75,-30 75,30 c 0,0 15,120 -75,165.00008 C 40,969.38382 55,849.38382 55,849.38382 z"
       id="path2991"
       inkscape:connector-curvature="0"
       sodipodi:nodetypes="ccccc" />
    <path
       style="fill:url(#linearGradient3023);fill-opacity:1;stroke:none"
       d="M 131 6.03125 C 119.44515 7.56647 119.05653 20.54111 119.75 29.625 L 119.75 56 C 111.04501 58.25753 130.5468 66.38328 122.6875 74.6875 C 120.56432 119.81884 118.43696 164.96245 116.3125 210.09375 C 116.58061 210.27206 116.85468 210.44809 117.125 210.625 C 117.64711 210.96644 118.18811 211.28921 118.71875 211.625 C 119.46102 212.09553 120.20983 212.57173 120.96875 213.03125 C 121.4484 213.32088 121.91981 213.62124 122.40625 213.90625 C 122.87133 214.1796 123.34116 214.4497 123.8125 214.71875 C 124.67033 215.20842 125.52732 215.68136 126.40625 216.15625 C 127.58387 216.79251 128.78352 217.42301 130 218.03125 C 131.30133 217.38058 132.58596 216.71269 133.84375 216.03125 C 133.94638 215.97565 134.05391 215.9308 134.15625 215.875 C 134.27216 215.8118 134.38446 215.75095 134.5 215.6875 C 135.73559 215.00895 136.9311 214.30101 138.125 213.59375 C 138.32171 213.47722 138.52316 213.36729 138.71875 213.25 C 139.81978 212.58968 140.90291 211.90266 141.96875 211.21875 C 143.14968 210.46099 144.3303 209.6918 145.46875 208.90625 C 145.5425 208.85534 145.61393 208.80102 145.6875 208.75 C 146.04924 208.49925 146.39252 208.25348 146.75 208 C 147.58216 207.40986 148.40942 206.82332 149.21875 206.21875 C 149.24219 206.20124 149.25783 206.17377 149.28125 206.15625 C 149.64017 205.88774 149.98928 205.61503 150.34375 205.34375 C 150.8087 204.98791 151.29265 204.64177 151.75 204.28125 C 152.05491 204.04087 152.3547 203.80492 152.65625 203.5625 C 153.15852 203.15889 153.63197 202.75291 154.125 202.34375 C 154.72189 201.84833 155.32278 201.34709 155.90625 200.84375 C 156.85849 200.02215 157.80173 199.18559 158.71875 198.34375 C 158.83371 198.23824 158.94809 198.13706 159.0625 198.03125 C 159.68101 197.45913 160.27238 196.8622 160.875 196.28125 C 161.27582 195.89485 161.66864 195.51519 162.0625 195.125 C 163.0444 194.15254 164.02942 193.18245 164.96875 192.1875 C 164.99914 192.15531 165.03215 192.12597 165.0625 192.09375 C 165.97221 191.12781 166.84823 190.14193 167.71875 189.15625 C 168.14269 188.67645 168.55395 188.20299 168.96875 187.71875 C 169.43334 187.17645 169.8905 186.64141 170.34375 186.09375 C 170.50573 185.89802 170.65195 185.69639 170.8125 185.5 C 170.91623 185.37311 171.02186 185.25216 171.125 185.125 C 171.70685 184.40757 172.28074 183.69463 172.84375 182.96875 C 173.35013 182.31588 173.85238 181.65933 174.34375 181 C 174.64524 180.59541 174.9541 180.18817 175.25 179.78125 C 175.51342 179.41905 175.77222 179.05148 176.03125 178.6875 C 176.54427 177.96662 177.03524 177.25878 177.53125 176.53125 C 177.56557 176.48093 177.59076 176.42535 177.625 176.375 C 177.83664 176.06365 178.04143 175.75 178.25 175.4375 C 178.56325 174.96842 178.88111 174.50283 179.1875 174.03125 C 179.3559 173.77191 179.52115 173.51007 179.6875 173.25 C 180.02653 172.72027 180.35694 172.18887 180.6875 171.65625 C 181.04297 171.08323 181.4042 170.51367 181.75 169.9375 C 182.36144 168.91925 182.94946 167.9022 183.53125 166.875 C 183.58382 166.78215 183.63517 166.68667 183.6875 166.59375 C 184.09185 165.87603 184.48479 165.15905 184.875 164.4375 C 185.09689 164.0272 185.31387 163.63019 185.53125 163.21875 C 185.74057 162.82266 185.95107 162.42834 186.15625 162.03125 C 186.53346 161.30094 186.91785 160.54586 187.28125 159.8125 C 187.32301 159.72823 187.36467 159.6468 187.40625 159.5625 C 187.92492 158.51089 188.41528 157.46305 188.90625 156.40625 C 189.17781 155.82165 189.4555 155.24215 189.71875 154.65625 C 189.80353 154.46759 189.88482 154.28253 189.96875 154.09375 C 190.61616 152.63754 191.21478 151.1805 191.8125 149.71875 C 191.84262 149.6451 191.87626 149.57366 191.90625 149.5 C 192.5487 147.92219 193.16305 146.3304 193.75 144.75 C 194.25216 143.39789 194.75562 142.07016 195.21875 140.71875 C 195.32212 140.41723 195.42977 140.11391 195.53125 139.8125 C 195.60829 139.58358 195.67405 139.35385 195.75 139.125 C 196.22575 137.69234 196.65957 136.2718 197.09375 134.84375 C 197.36042 133.96666 197.62348 133.09323 197.875 132.21875 C 198.09872 131.44132 198.3192 130.68113 198.53125 129.90625 C 199.25982 127.24422 199.90164 124.61977 200.5 122 C 200.6392 121.39101 200.7737 120.79358 200.90625 120.1875 C 201.17407 118.96259 201.4147 117.74282 201.65625 116.53125 C 201.73148 116.15392 201.8335 115.78216 201.90625 115.40625 C 201.9102 115.38585 201.90231 115.36415 201.90625 115.34375 C 201.97537 114.98605 202.05808 114.63761 202.125 114.28125 C 202.34939 113.08638 202.54962 111.89731 202.75 110.71875 C 202.85962 110.074 202.9598 109.45193 203.0625 108.8125 C 203.2065 107.91664 203.33787 107.00967 203.46875 106.125 C 203.63453 105.00312 203.79184 103.88354 203.9375 102.78125 C 203.99006 102.38344 204.04371 101.98885 204.09375 101.59375 C 204.18916 100.84102 204.28848 100.11748 204.375 99.375 C 204.40224 99.141436 204.41112 98.920012 204.4375 98.6875 C 204.60803 97.184458 204.76985 95.706308 204.90625 94.25 C 204.93347 93.959134 204.97407 93.663886 205 93.375 C 205.01249 93.236076 205.01906 93.10721 205.03125 92.96875 C 205.15421 91.571633 205.24927 90.191193 205.34375 88.84375 C 205.41295 87.856946 205.47607 86.895625 205.53125 85.9375 C 205.55188 85.578788 205.57499 85.229521 205.59375 84.875 C 205.64144 83.977201 205.68238 83.119962 205.71875 82.25 C 205.7875 80.608522 205.84194 79.003656 205.875 77.46875 C 182.77775 54.372894 159.66672 31.280443 136.53125 8.21875 C 135.00213 6.91136 133.04499 6.0045 131 6.03125 z M 340.9375 250.8125 L 340.9375 254.59375 L 148.59375 254.59375 C 149.03317 255.06258 149.4759 255.52488 149.90625 256 C 209.61948 315.6534 269.20308 375.4269 329 435 C 343.4289 425.2322 345.93593 408.87865 342.96875 392.90625 L 336.59375 257 C 344.50904 258.14589 342.50441 255.08332 340.9375 250.8125 z "
       id="path5055"
       transform="translate(0,796.36218)" />
    <path
       style="fill:#880000;fill-opacity:1;stroke:none"
       d="m 118.75,852.36218 c 0,0 0,0 0,-40 1.35299,-4.35521 4.23359,-8.19601 7.5,-10 2.3097,-1.27561 5.1903,-1.27561 7.5,0 3.26641,1.80399 6.14701,5.64479 7.5,10 0,40 0,40 0,40 l -22.5,0 0,0"
       id="path3775"
       inkscape:connector-curvature="0"
       sodipodi:nodetypes="ccaacccc" />
    <path
       style="fill:#ececec;stroke:none"
       d="m 122.5,852.36214 c 0,0 0,0 -7.5,160.00006 2.50081,8.8187 15,20 15,20 0,0 12.49919,-11.1813 15,-20 -7.5,-160.00006 -7.5,-160.00006 -7.5,-160.00006 l 0,0"
       id="path3771"
       inkscape:connector-curvature="0"
       sodipodi:nodetypes="cccccc" />
    <rect
       style="fill:#ededed;fill-opacity:1;stroke:none"
       id="rect3798"
       width="30"
       height="3"
       x="115"
       y="851.36218"
       rx="3"
       ry="3" />
  </g>
</svg>
